<svg width="291" height="357" viewBox="0 0 291 357" fill="none" xmlns="http://www.w3.org/2000/svg">
<circle cx="216.377" cy="200.97" r="111.5" transform="rotate(64.1067 216.377 200.97)" stroke="white" stroke-width="3"/>
<circle cx="216.377" cy="200.97" r="108.5" transform="rotate(2.64925 216.377 200.97)" fill="#E2E3E7" stroke="#E2E3E7" stroke-width="3"/>
<circle cx="216.377" cy="200.97" r="99.5" transform="rotate(2.64925 216.377 200.97)" fill="#F7F7F7" stroke="#E2E3E7"/>
<rect x="150.238" y="148.357" width="139" height="81" rx="11.5" transform="rotate(2.64925 150.238 148.357)" fill="white" stroke="#E2E3E7"/>
<rect x="172.424" y="198.937" width="87" height="16" rx="8" transform="rotate(2.64925 172.424 198.937)" fill="#E2E3E7"/>
<rect x="165.005" y="164.557" width="86" height="22" rx="2" transform="rotate(2.64925 165.005 164.557)" fill="#F1F1F1"/>
<rect x="254.909" y="168.717" width="18" height="22" rx="2" transform="rotate(2.64925 254.909 168.717)" fill="#F1F1F1"/>
<rect x="181.138" y="205.346" width="70" height="4" transform="rotate(2.64925 181.138 205.346)" fill="white"/>
<circle cx="220.704" cy="129.094" r="6" transform="rotate(2.64925 220.704 129.094)" fill="#E2E3E7"/>
<circle cx="214.418" cy="264.948" r="15.5" transform="rotate(2.64925 214.418 264.948)" fill="#F7F7F7" stroke="#E2E3E7"/>
<mask id="path-11-outside-1_15_3942" maskUnits="userSpaceOnUse" x="21.3987" y="116.418" width="174.365" height="234.544" fill="black">
<rect fill="white" x="21.3987" y="116.418" width="174.365" height="234.544"/>
<path fill-rule="evenodd" clip-rule="evenodd" d="M173.568 305.548C177.871 307.308 182.278 308.802 186.764 310.022C186.263 310.472 185.709 310.957 185.108 311.467C182.073 314.042 177.722 317.355 172.533 320.192C162.354 325.758 147.422 330.232 133.247 321.033C121.717 313.55 119.694 302.969 118.637 293.273C118.496 291.976 118.369 290.695 118.244 289.427C117.459 281.485 116.722 274.029 112.711 266.381L111.3 267.066C108.486 262.907 105.39 259.133 102.135 255.662L121.127 246.442C121.841 251.147 122.892 255.914 124.419 260.698L123.331 261.226C128.358 271.014 129.28 280.697 130.022 288.495C130.138 289.709 130.249 290.877 130.371 291.993C131.351 300.984 132.877 306.721 139.673 311.132C148.389 316.789 158.115 314.623 166.871 309.836C169.328 308.492 171.589 306.999 173.568 305.548ZM110.924 167.752L116.079 178.371L115.041 178.875C120.499 187.303 120.214 199.547 119.882 213.799C119.741 219.832 119.592 226.225 119.867 232.84L92.2272 246.257C87.1995 241.949 82.0847 238.112 77.2577 234.491L77.2576 234.491L77.2571 234.49L77.257 234.49C65.8537 225.935 56.0572 218.586 52.8115 209.083L51.4839 209.727L46.3294 199.109L56.9478 193.954L56.3035 192.627L54.5853 189.087L38.2629 155.463C37.0768 153.019 38.0961 150.077 40.5395 148.891C42.983 147.705 45.9254 148.724 47.1115 151.167L63.434 184.792L65.1521 188.332L65.7964 189.659L91.0368 177.406C90.9517 177.268 90.8727 177.124 90.8002 176.975L72.3301 138.926C71.1439 136.482 72.1632 133.54 74.6067 132.354C77.0502 131.167 79.9926 132.187 81.1787 134.63L99.6488 172.679C99.7213 172.829 99.7855 172.98 99.8417 173.132L110.924 167.752ZM98.4962 251.961C98.9932 252.444 99.4877 252.933 99.9793 253.428L120.706 243.367C120.621 242.674 120.543 241.983 120.471 241.294L98.4962 251.961ZM120.183 238.153L96.2061 249.793C95.6852 249.312 95.1623 248.837 94.6378 248.367L120.034 236.039C120.078 236.742 120.128 237.447 120.183 238.153Z"/>
</mask>
<path fill-rule="evenodd" clip-rule="evenodd" d="M173.568 305.548C177.871 307.308 182.278 308.802 186.764 310.022C186.263 310.472 185.709 310.957 185.108 311.467C182.073 314.042 177.722 317.355 172.533 320.192C162.354 325.758 147.422 330.232 133.247 321.033C121.717 313.55 119.694 302.969 118.637 293.273C118.496 291.976 118.369 290.695 118.244 289.427C117.459 281.485 116.722 274.029 112.711 266.381L111.3 267.066C108.486 262.907 105.39 259.133 102.135 255.662L121.127 246.442C121.841 251.147 122.892 255.914 124.419 260.698L123.331 261.226C128.358 271.014 129.28 280.697 130.022 288.495C130.138 289.709 130.249 290.877 130.371 291.993C131.351 300.984 132.877 306.721 139.673 311.132C148.389 316.789 158.115 314.623 166.871 309.836C169.328 308.492 171.589 306.999 173.568 305.548ZM110.924 167.752L116.079 178.371L115.041 178.875C120.499 187.303 120.214 199.547 119.882 213.799C119.741 219.832 119.592 226.225 119.867 232.84L92.2272 246.257C87.1995 241.949 82.0847 238.112 77.2577 234.491L77.2576 234.491L77.2571 234.49L77.257 234.49C65.8537 225.935 56.0572 218.586 52.8115 209.083L51.4839 209.727L46.3294 199.109L56.9478 193.954L56.3035 192.627L54.5853 189.087L38.2629 155.463C37.0768 153.019 38.0961 150.077 40.5395 148.891C42.983 147.705 45.9254 148.724 47.1115 151.167L63.434 184.792L65.1521 188.332L65.7964 189.659L91.0368 177.406C90.9517 177.268 90.8727 177.124 90.8002 176.975L72.3301 138.926C71.1439 136.482 72.1632 133.54 74.6067 132.354C77.0502 131.167 79.9926 132.187 81.1787 134.63L99.6488 172.679C99.7213 172.829 99.7855 172.98 99.8417 173.132L110.924 167.752ZM98.4962 251.961C98.9932 252.444 99.4877 252.933 99.9793 253.428L120.706 243.367C120.621 242.674 120.543 241.983 120.471 241.294L98.4962 251.961ZM120.183 238.153L96.2061 249.793C95.6852 249.312 95.1623 248.837 94.6378 248.367L120.034 236.039C120.078 236.742 120.128 237.447 120.183 238.153Z" fill="#E2E3E7"/>
<path d="M173.568 305.548L174.704 302.772L173.149 302.136L171.795 303.129L173.568 305.548ZM186.764 310.022L188.767 312.256L192.873 308.575L187.552 307.128L186.764 310.022ZM185.108 311.467L183.167 309.18L183.167 309.18L185.108 311.467ZM172.533 320.192L173.973 322.824L173.973 322.824L172.533 320.192ZM133.247 321.033L131.614 323.549L131.614 323.549L133.247 321.033ZM118.637 293.273L115.655 293.598L118.637 293.273ZM118.244 289.427L115.258 289.722L115.258 289.722L118.244 289.427ZM112.711 266.381L115.367 264.988L114.017 262.413L111.4 263.683L112.711 266.381ZM111.3 267.066L108.815 268.747L110.271 270.9L112.61 269.765L111.3 267.066ZM102.135 255.662L100.825 252.963L97.1602 254.742L99.9468 257.714L102.135 255.662ZM121.127 246.442L124.093 245.992L123.482 241.964L119.817 243.744L121.127 246.442ZM124.419 260.698L125.729 263.397L128.067 262.262L127.277 259.786L124.419 260.698ZM123.331 261.226L122.021 258.527L119.261 259.867L120.662 262.596L123.331 261.226ZM130.022 288.495L133.009 288.211L133.009 288.211L130.022 288.495ZM130.371 291.993L133.353 291.668L133.353 291.668L130.371 291.993ZM139.673 311.132L141.306 308.615L141.306 308.615L139.673 311.132ZM166.871 309.836L165.431 307.203L165.431 307.203L166.871 309.836ZM116.079 178.371L117.389 181.07L120.088 179.759L118.778 177.061L116.079 178.371ZM110.924 167.752L113.623 166.442L112.313 163.744L109.614 165.054L110.924 167.752ZM115.041 178.875L113.73 176.176L110.678 177.658L112.523 180.506L115.041 178.875ZM119.882 213.799L122.881 213.869L119.882 213.799ZM119.867 232.84L121.177 235.539L122.946 234.68L122.864 232.716L119.867 232.84ZM92.2272 246.257L90.2752 248.535L91.7684 249.815L93.5373 248.956L92.2272 246.257ZM77.2577 234.491L75.4297 236.869L75.4435 236.88L75.4574 236.89L77.2577 234.491ZM77.2576 234.491L79.0856 232.112L77.2576 234.491ZM77.257 234.49L79.085 232.111L79.0712 232.101L79.0573 232.09L77.257 234.49ZM52.8115 209.083L55.6505 208.113L54.5539 204.902L51.5014 206.384L52.8115 209.083ZM51.4839 209.727L48.7851 211.037L50.0952 213.736L52.794 212.426L51.4839 209.727ZM46.3294 199.109L45.0194 196.41L42.3205 197.72L43.6306 200.419L46.3294 199.109ZM56.9478 193.954L58.2579 196.653L60.9567 195.343L59.6466 192.644L56.9478 193.954ZM65.7964 189.659L63.0976 190.969L64.4077 193.668L67.1065 192.358L65.7964 189.659ZM91.0368 177.406L92.3469 180.105L95.3269 178.659L93.593 175.836L91.0368 177.406ZM99.8417 173.132L97.0267 174.169L98.1718 177.278L101.152 175.831L99.8417 173.132ZM99.9793 253.428L97.8504 255.542L99.3608 257.063L101.289 256.127L99.9793 253.428ZM98.4962 251.961L97.1861 249.262L93.3365 251.131L96.4057 254.113L98.4962 251.961ZM120.706 243.367L122.016 246.066L123.944 245.129L123.683 243.002L120.706 243.367ZM120.471 241.294L123.454 240.983L123.01 236.727L119.16 238.595L120.471 241.294ZM96.2061 249.793L94.1708 251.997L95.6746 253.385L97.5162 252.492L96.2061 249.793ZM120.183 238.153L121.494 240.852L123.335 239.958L123.174 237.918L120.183 238.153ZM94.6378 248.367L93.3277 245.668L89.3052 247.621L92.6372 250.603L94.6378 248.367ZM120.034 236.039L123.028 235.85L122.746 231.388L118.724 233.341L120.034 236.039ZM172.433 308.325C176.849 310.131 181.373 311.665 185.977 312.917L187.552 307.128C183.184 305.94 178.893 304.485 174.704 302.772L172.433 308.325ZM187.048 313.755C187.672 313.225 188.246 312.723 188.767 312.256L184.762 307.789C184.279 308.221 183.746 308.688 183.167 309.18L187.048 313.755ZM173.973 322.824C179.392 319.861 183.912 316.416 187.048 313.755L183.167 309.18C180.234 311.668 176.051 314.849 171.094 317.56L173.973 322.824ZM131.614 323.549C147.181 333.652 163.44 328.583 173.973 322.824L171.094 317.56C161.268 322.932 147.662 326.812 134.88 318.516L131.614 323.549ZM115.655 293.598C116.731 303.47 118.879 315.285 131.614 323.549L134.88 318.516C124.555 311.815 122.658 302.467 121.619 292.947L115.655 293.598ZM115.258 289.722C115.383 290.988 115.511 292.284 115.655 293.598L121.619 292.947C121.48 291.669 121.355 290.403 121.229 289.132L115.258 289.722ZM110.054 267.775C113.757 274.836 114.468 281.726 115.258 289.722L121.229 289.132C120.449 281.243 119.687 273.223 115.367 264.988L110.054 267.775ZM112.61 269.765L114.021 269.08L111.4 263.683L109.99 264.368L112.61 269.765ZM99.9468 257.714C103.109 261.086 106.101 264.737 108.815 268.747L113.784 265.385C110.87 261.078 107.672 257.18 104.324 253.609L99.9468 257.714ZM119.817 243.744L100.825 252.963L103.445 258.36L122.437 249.141L119.817 243.744ZM127.277 259.786C125.804 255.173 124.787 250.563 124.093 245.992L118.161 246.892C118.895 251.732 119.979 256.656 121.561 261.61L127.277 259.786ZM124.641 263.925L125.729 263.397L123.109 257.999L122.021 258.527L124.641 263.925ZM133.009 288.211C132.268 280.434 131.319 270.214 126 259.855L120.662 262.596C125.396 271.813 126.291 280.96 127.036 288.779L133.009 288.211ZM133.353 291.668C133.234 290.576 133.125 289.429 133.009 288.211L127.036 288.779C127.151 289.989 127.264 291.178 127.388 292.318L133.353 291.668ZM141.306 308.615C138.38 306.716 136.7 304.629 135.592 302.083C134.432 299.419 133.839 296.127 133.353 291.668L127.388 292.318C127.883 296.85 128.543 300.922 130.09 304.477C131.689 308.15 134.17 311.137 138.04 313.648L141.306 308.615ZM165.431 307.203C157.05 311.786 148.643 313.377 141.306 308.615L138.04 313.648C148.136 320.2 159.18 317.46 168.31 312.468L165.431 307.203ZM171.795 303.129C169.9 304.518 167.751 305.935 165.431 307.203L168.31 312.468C170.905 311.049 173.278 309.481 175.342 307.968L171.795 303.129ZM118.778 177.061L113.623 166.442L108.226 169.063L113.38 179.681L118.778 177.061ZM116.351 181.574L117.389 181.07L114.769 175.672L113.73 176.176L116.351 181.574ZM122.881 213.869C123.046 206.791 123.209 199.975 122.619 193.865C122.028 187.742 120.659 182.031 117.559 177.244L112.523 180.506C114.881 184.147 116.099 188.772 116.647 194.442C117.196 200.123 117.05 206.555 116.883 213.729L122.881 213.869ZM122.864 232.716C122.594 226.212 122.74 219.914 122.881 213.869L116.883 213.729C116.742 219.75 116.59 226.237 116.87 232.965L122.864 232.716ZM93.5373 248.956L121.177 235.539L118.557 230.141L90.9172 243.558L93.5373 248.956ZM75.4574 236.89C80.2942 240.519 85.3327 244.3 90.2752 248.535L94.1792 243.979C89.0664 239.598 83.8752 235.705 79.0581 232.091L75.4574 236.89ZM75.4296 236.869L75.4297 236.869L79.0857 232.112L79.0856 232.112L75.4296 236.869ZM75.4291 236.869L75.4296 236.869L79.0856 232.112L79.0851 232.111L75.4291 236.869ZM75.4289 236.869L75.4291 236.869L79.0851 232.111L79.085 232.111L75.4289 236.869ZM49.9726 210.052C51.8159 215.449 55.4565 220.058 59.9013 224.31C64.3371 228.553 69.7937 232.641 75.4566 236.89L79.0573 232.09C73.317 227.784 68.1737 223.92 64.0489 219.974C59.9332 216.037 57.0528 212.219 55.6505 208.113L49.9726 210.052ZM52.794 212.426L54.1216 211.781L51.5014 206.384L50.1738 207.028L52.794 212.426ZM43.6306 200.419L48.7851 211.037L54.1827 208.417L49.0283 197.799L43.6306 200.419ZM55.6377 191.255L45.0194 196.41L47.6395 201.807L58.2579 196.653L55.6377 191.255ZM53.6047 193.937L54.249 195.264L59.6466 192.644L59.0023 191.317L53.6047 193.937ZM51.8865 190.398L53.6047 193.937L59.0023 191.317L57.2842 187.777L51.8865 190.398ZM35.5641 156.773L51.8865 190.398L57.2842 187.777L40.9617 154.153L35.5641 156.773ZM39.2295 146.192C35.2955 148.102 33.6544 152.839 35.5641 156.773L40.9617 154.153C40.4992 153.2 40.8967 152.052 41.8496 151.59L39.2295 146.192ZM49.8104 149.857C47.9007 145.923 43.1635 144.282 39.2295 146.192L41.8496 151.59C42.8026 151.127 43.9501 151.524 44.4127 152.477L49.8104 149.857ZM66.1328 183.482L49.8104 149.857L44.4127 152.477L60.7351 186.102L66.1328 183.482ZM67.8509 187.021L66.1328 183.482L60.7351 186.102L62.4533 189.642L67.8509 187.021ZM68.4952 188.349L67.8509 187.021L62.4533 189.642L63.0976 190.969L68.4952 188.349ZM89.7267 174.708L64.4863 186.96L67.1065 192.358L92.3469 180.105L89.7267 174.708ZM88.1014 178.285C88.2171 178.523 88.3438 178.754 88.4806 178.977L93.593 175.836C93.5596 175.782 93.5282 175.725 93.499 175.664L88.1014 178.285ZM69.6313 140.236L88.1014 178.285L93.499 175.664L75.0289 137.615L69.6313 140.236ZM73.2966 129.655C69.3626 131.564 67.7216 136.302 69.6313 140.236L75.0289 137.615C74.5663 136.662 74.9638 135.515 75.9168 135.052L73.2966 129.655ZM83.8775 133.32C81.9678 129.386 77.2306 127.745 73.2966 129.655L75.9168 135.052C76.8697 134.59 78.0173 134.987 78.4799 135.94L83.8775 133.32ZM102.348 171.369L83.8775 133.32L78.4799 135.94L96.95 173.989L102.348 171.369ZM102.657 172.095C102.566 171.85 102.463 171.608 102.348 171.369L96.95 173.989C96.9792 174.049 97.0046 174.109 97.0267 174.169L102.657 172.095ZM109.614 165.054L98.5316 170.433L101.152 175.831L112.234 170.451L109.614 165.054ZM102.108 251.314C101.604 250.806 101.096 250.304 100.587 249.809L96.4057 254.113C96.8902 254.584 97.3719 255.06 97.8504 255.542L102.108 251.314ZM119.396 240.668L98.6692 250.729L101.289 256.127L122.016 246.066L119.396 240.668ZM117.487 241.606C117.561 242.312 117.641 243.021 117.728 243.732L123.683 243.002C123.601 242.328 123.525 241.654 123.454 240.983L117.487 241.606ZM99.8063 254.66L121.781 243.993L119.16 238.595L97.1861 249.262L99.8063 254.66ZM97.5162 252.492L121.494 240.852L118.873 235.455L94.896 247.094L97.5162 252.492ZM92.6372 250.603C93.1506 251.062 93.6619 251.527 94.1708 251.997L98.2414 247.589C97.7086 247.097 97.1741 246.611 96.6384 246.132L92.6372 250.603ZM118.724 233.341L93.3277 245.668L95.9479 251.066L121.344 238.738L118.724 233.341ZM123.174 237.918C123.12 237.227 123.071 236.538 123.028 235.85L117.04 236.228C117.085 236.946 117.136 237.666 117.193 238.389L123.174 237.918Z" fill="white" mask="url(#path-11-outside-1_15_3942)"/>
<rect x="79.0303" y="130.205" width="49.6721" height="9.83607" rx="4.91803" transform="rotate(64.1067 79.0303 130.205)" fill="#F7F7F7"/>
<rect x="44.9658" y="146.743" width="49.6721" height="9.83607" rx="4.91803" transform="rotate(64.1067 44.9658 146.743)" fill="#F7F7F7"/>
<rect x="97.501" y="168.254" width="11.3115" height="9.83607" transform="rotate(64.1067 97.501 168.254)" fill="#E2E3E7"/>
<rect x="63.4336" y="184.791" width="11.3115" height="9.83607" transform="rotate(64.1067 63.4336 184.791)" fill="#E2E3E7"/>
<path d="M100.23 172.386L53.001 195.312" stroke="white" stroke-linecap="round" stroke-linejoin="round"/>
<path d="M116.602 178.668L51.6826 210.182" stroke="white" stroke-linecap="round" stroke-linejoin="round"/>
</svg>
