<svg width="16" height="16" viewBox="0 0 16 16" fill="none" xmlns="http://www.w3.org/2000/svg">
<path d="M2.91305 2.79855C0.792114 4.72216 2.70449 8.30196 5.19944 10.7972C7.6936 13.2917 11.2784 15.209 13.2018 13.0878C13.3351 12.9404 13.5609 12.6173 13.8777 12.1209C13.9891 11.9455 14.0264 11.7329 13.9813 11.53C13.9361 11.3271 13.8123 11.1504 13.6369 11.0388L11.7269 9.9409C11.5557 9.84283 11.3539 9.81291 11.1616 9.85709C10.9693 9.90128 10.8008 10.0163 10.6896 10.1793C10.543 10.3996 10.3759 10.6067 10.1917 10.7964C9.13866 11.8449 7.80808 10.9109 6.44691 9.54959C5.08496 8.18747 4.15661 6.8622 5.20493 5.80904C5.36409 5.64906 5.56952 5.48282 5.82121 5.31108C5.98436 5.19983 6.09954 5.03112 6.14373 4.83864C6.18791 4.64617 6.15786 4.4441 6.05957 4.27282L4.96264 2.36255C4.85091 2.1873 4.67417 2.06359 4.47128 2.0186C4.26839 1.9736 4.05594 2.01101 3.88061 2.12259C3.3835 2.4394 3.06125 2.66368 2.91305 2.79855Z" fill="#121212"/>
</svg>
