<svg width="292" height="258" viewBox="0 0 292 258" fill="none" xmlns="http://www.w3.org/2000/svg">
<path d="M60.7514 2.70375L60.3372 2.70375L60.0443 2.99664L14.7895 48.2515L14.4359 48.605L14.5066 49.1L15.2137 54.0497L15.3198 54.7922L16.0622 54.8983L20.8882 55.5877L21.5777 60.4137L21.6837 61.1562L22.4262 61.2622L27.2522 61.9517L27.9416 66.7777L28.0477 67.5201L28.7902 67.6262L33.6162 68.3156L34.3056 73.1416L34.4117 73.8841L35.1541 73.9902L40.1039 74.6973L40.5988 74.768L40.9524 74.4144L46.2339 69.1329L67.3185 104.274L67.9775 105.372L68.8831 104.466L116.966 56.3832L117.872 55.4776L116.774 54.8186L81.6328 33.734L86.2072 29.1596L86.5001 28.8667L86.5001 28.4525L86.5001 22.7956L86.5001 21.7956L85.5001 21.7956L80.1362 21.7956L80.1362 16.4317L80.1362 15.4317L79.1362 15.4317L73.7722 15.4317L73.7722 10.0677L73.7722 9.06771L72.7722 9.06771L67.4082 9.06771L67.4082 3.70375L67.4082 2.70375L66.4082 2.70375L60.7514 2.70375Z" fill="#E2E3E7" stroke="white" stroke-width="2"/>
<path d="M324.796 266.748L324.796 267.162L324.503 267.455L279.248 312.71L278.894 313.064L278.4 312.993L273.45 312.286L272.707 312.18L272.601 311.437L271.912 306.611L267.086 305.922L266.343 305.816L266.237 305.073L265.548 300.247L260.722 299.558L259.979 299.452L259.873 298.709L259.184 293.883L254.358 293.194L253.615 293.088L253.509 292.345L252.802 287.396L252.732 286.901L253.085 286.547L258.367 281.266L223.226 260.181L222.127 259.522L223.033 258.616L271.116 210.533L272.022 209.627L272.681 210.726L293.765 245.867L298.34 241.292L298.633 240.999L299.047 240.999L304.704 240.999L305.704 240.999L305.704 241.999L305.704 247.363L311.068 247.363L312.068 247.363L312.068 248.363L312.068 253.727L317.432 253.727L318.432 253.727L318.432 254.727L318.432 260.091L323.796 260.091L324.796 260.091L324.796 261.091L324.796 266.748Z" fill="#E2E3E7" stroke="white" stroke-width="2"/>
<circle cx="170" cy="157" r="131.5" stroke="white" stroke-width="3"/>
<circle cx="170" cy="157" r="128.5" fill="#F7F7F7" stroke="#E2E3E7" stroke-width="3"/>
<circle cx="170" cy="157" r="100" fill="white"/>
<rect x="125" y="97" width="90" height="22" rx="2" fill="#F7F7F7"/>
<circle cx="170" cy="157" r="114.5" stroke="#E2E3E7"/>
<g clip-path="url(#clip0_15_3872)">
<circle cx="170" cy="157" r="8" fill="#C9CBD1"/>
<rect x="168" y="141" width="4" height="32" fill="#C9CBD1"/>
<rect x="155.144" y="150.732" width="4" height="32" transform="rotate(-60 155.144 150.732)" fill="#C9CBD1"/>
<rect x="182.856" y="147.268" width="4" height="32" transform="rotate(60 182.856 147.268)" fill="#C9CBD1"/>
</g>
<defs>
<clipPath id="clip0_15_3872">
<rect width="29.7129" height="32" fill="white" transform="translate(155.144 141)"/>
</clipPath>
</defs>
</svg>
