<svg width="259" height="266" viewBox="0 0 259 266" fill="none" xmlns="http://www.w3.org/2000/svg">
<path d="M1.29244 101.042L0.999551 101.335L0.99955 101.749L0.99955 165.749L0.999551 166.249L1.39955 166.549L5.39955 169.549L5.99955 169.999L6.59955 169.549L10.4996 166.624L14.3996 169.549L14.9996 169.999L15.5996 169.549L19.4996 166.624L23.3996 169.549L23.9996 169.999L24.5995 169.549L28.4996 166.624L32.3995 169.549L32.9995 169.999L33.5995 169.549L37.5995 166.549L37.9995 166.249L37.9995 165.749L37.9995 158.28L77.757 168.22L78.9996 168.53L78.9996 167.249L78.9996 99.2494L78.9996 97.9686L77.757 98.2792L37.9996 108.219L37.9996 101.749L37.9996 101.335L37.7067 101.042L33.7067 97.0423L32.9996 96.3352L32.2924 97.0423L28.4996 100.835L24.7067 97.0423L23.9996 96.3352L23.2924 97.0423L19.4996 100.835L15.7067 97.0423L14.9996 96.3352L14.2924 97.0423L10.4996 100.835L6.70666 97.0423L5.99955 96.3352L5.29244 97.0423L1.29244 101.042Z" fill="#E2E3E7" stroke="white" stroke-width="2"/>
<circle cx="188" cy="133" r="131.5" stroke="white" stroke-width="3"/>
<circle cx="188" cy="133" r="128.5" fill="#F7F7F7" stroke="#E2E3E7" stroke-width="3"/>
<circle cx="188" cy="133" r="100" fill="white"/>
<rect x="143" y="73" width="90" height="22" rx="2" fill="#F7F7F7"/>
<circle cx="188" cy="133" r="114.5" stroke="#E2E3E7"/>
<g clip-path="url(#clip0_15_3908)">
<circle cx="188" cy="133" r="8" fill="#C9CBD1"/>
<rect x="186" y="117" width="4" height="32" fill="#C9CBD1"/>
<rect x="173.144" y="126.732" width="4" height="32" transform="rotate(-60 173.144 126.732)" fill="#C9CBD1"/>
<rect x="200.856" y="123.268" width="4" height="32" transform="rotate(60 200.856 123.268)" fill="#C9CBD1"/>
</g>
<defs>
<clipPath id="clip0_15_3908">
<rect width="29.7129" height="32" fill="white" transform="translate(173.144 117)"/>
</clipPath>
</defs>
</svg>
