<svg width="32" height="32" viewBox="0 0 32 32" fill="none" xmlns="http://www.w3.org/2000/svg">
<g clip-path="url(#clip0_1_1328)">
<path d="M30.3916 10.615C30.2657 8.9659 29.007 6.85165 27.7482 5.8368C26.3327 4.79822 24.862 3.83834 23.3426 2.96143C21.8347 2.06071 20.2801 1.24203 18.6853 0.5089C17.8334 0.158682 16.9199 -0.0139308 16 0.00148266C15.0797 -0.0180031 14.1654 0.154763 13.3147 0.5089C11.7201 1.24255 10.1655 2.06121 8.65732 2.96143C6.22377 4.4414 4.25172 5.8368 4.25172 5.8368C3.59824 6.38795 3.04478 7.039 2.60786 7.76045C2.55775 7.8432 2.6182 7.94745 2.71493 7.94745H4.76002C4.80939 7.94745 4.85618 7.92565 4.88856 7.8884C5.12442 7.61705 5.38257 7.36325 5.66147 7.13C5.66147 7.13 7.39687 5.9122 9.53842 4.62056C10.8656 3.83492 12.2337 3.12045 13.6369 2.48018C14.3855 2.17111 15.1901 2.02033 16 2.03734C16.8095 2.02389 17.6134 2.17453 18.363 2.48018C19.7664 3.12 21.1346 3.83449 22.4615 4.62056C23.7985 5.38585 25.0928 6.2236 26.3384 7.13C27.4461 8.01565 28.5538 9.8608 28.6646 11.3C28.6646 11.3 28.923 13.4405 28.96 15.9757C28.9577 17.5414 28.8714 19.1059 28.7015 20.6624C28.4439 22.2921 27.6044 23.7735 26.3384 24.8325C26.3384 24.8325 24.603 26.0872 22.4615 27.3787C21.1343 28.1644 19.7662 28.8789 18.363 29.5191C17.6144 29.8282 16.8098 29.979 16 29.962C15.1912 29.979 14.3873 29.8321 13.6369 29.5303C12.2335 28.8904 10.8654 28.176 9.53842 27.3899C7.39687 26.1352 5.66147 24.8435 5.66147 24.8435C5.43612 24.6633 5.21072 24.4434 4.99344 24.1952C4.96105 24.1582 4.91444 24.1367 4.86528 24.1367H2.81263C2.71466 24.1367 2.65436 24.2433 2.7066 24.3262C3.16278 25.0499 3.70725 25.6946 4.25172 26.1336C4.25172 26.1336 6.22377 27.6136 8.65732 29.0513C10.1652 29.952 11.7199 30.7706 13.3147 31.5037C14.1675 31.8496 15.0809 32.018 16 31.9985C16.9202 32.018 17.8345 31.8452 18.6853 31.4911C20.2798 30.7574 21.8345 29.9387 23.3426 29.0385C25.7762 27.5585 27.7482 26.1209 27.7482 26.1209C29.1869 24.9075 30.1408 23.2101 30.4335 21.3427C30.6266 19.5592 30.7247 17.7666 30.7272 15.9725C30.6853 13.0675 30.3916 10.615 30.3916 10.615Z" fill="url(#paint0_linear_1_1328)"/>
<path d="M11.0505 20.3102H10.058C10.0248 20.3102 10.0007 20.278 10.0097 20.2458C10.1757 19.681 10.3486 19.0418 10.4683 18.3331C10.5909 17.6002 10.6553 16.9247 10.6825 16.3217C10.6835 16.2946 10.7056 16.2734 10.7327 16.2734H13.6822C13.71 16.2734 13.7325 16.2959 13.7325 16.3237V20.2599C13.7325 20.2877 13.71 20.3102 13.6822 20.3102H12.7158C12.688 20.3102 12.6655 20.2877 12.6655 20.2599V17.2197H11.6953C11.6597 17.6684 11.5995 18.1504 11.501 18.6592C11.3863 19.2552 11.2506 19.7958 11.0977 20.276C11.0917 20.2961 11.0716 20.3102 11.0505 20.3102Z" fill="#EE2F53"/>
<path d="M1.72412 10.4371C1.72412 10.4093 1.74661 10.3867 1.77436 10.3867H4.61792C4.65344 10.3867 4.67747 10.4234 4.66367 10.4565L4.31152 11.3023C4.30222 11.3246 4.28095 11.3348 4.26076 11.3328C4.25911 11.3329 4.25743 11.333 4.25573 11.333H2.78901V14.3732C2.78901 14.401 2.76652 14.4235 2.73878 14.4235H1.77436C1.74661 14.4235 1.72412 14.401 1.72412 14.3732V10.4371Z" fill="#0066B3"/>
<path d="M19.0488 16.3237C19.0488 16.2959 19.0713 16.2734 19.0991 16.2734H21.9486C21.9842 16.2734 22.0083 16.3101 21.9944 16.3432L21.6416 17.189C21.6322 17.2113 21.6109 17.2215 21.5907 17.2194C21.589 17.2196 21.5874 17.2197 21.5857 17.2197H20.1159V20.2599C20.1159 20.2877 20.0934 20.3102 20.0656 20.3102H19.0991C19.0713 20.3102 19.0488 20.2877 19.0488 20.2599V16.3237Z" fill="#EE2F53"/>
<path d="M1.77442 16.2734C1.7395 16.2734 1.71523 16.3078 1.72722 16.3402L3.19556 20.3108C2.98836 20.7465 2.75815 21.205 2.49488 21.7161C2.47765 21.7496 2.50166 21.79 2.53936 21.79H3.58393C3.6029 21.79 3.62039 21.7791 3.62895 21.7623C4.40189 20.1894 4.97066 18.7951 5.74832 16.3399C5.75892 16.3075 5.73492 16.2734 5.70067 16.2734H4.73048C4.70797 16.2734 4.68807 16.2887 4.68191 16.3103C4.38252 17.36 4.10648 18.1816 3.7865 18.9734L2.80013 16.306C2.79288 16.2864 2.77403 16.2734 2.75293 16.2734H1.77442Z" fill="#EE2F53"/>
<path d="M14.4312 16.2734C14.3962 16.2734 14.372 16.3078 14.384 16.3402L15.8523 20.3108C15.6451 20.7465 15.4149 21.205 15.1516 21.7161C15.1344 21.7496 15.1584 21.79 15.1961 21.79H16.2407C16.2596 21.79 16.2771 21.7791 16.2857 21.7623C17.0586 20.1894 17.6274 18.7951 18.4051 16.3399C18.4156 16.3075 18.3916 16.2734 18.3574 16.2734H17.3872C17.3647 16.2734 17.3448 16.2887 17.3387 16.3103C17.0393 17.36 16.7632 18.1816 16.4432 18.9734L15.4569 16.306C15.4496 16.2864 15.4308 16.2734 15.4097 16.2734H14.4312Z" fill="#EE2F53"/>
<path d="M9.20982 19.3571C9.20482 19.3442 9.19482 19.3332 9.18182 19.3272C9.16887 19.3213 9.15387 19.3213 9.14087 19.3253C8.90912 19.4108 8.47462 19.4804 8.17192 19.4804C7.50962 19.4804 7.19397 19.3024 7.19397 18.2908C7.19397 17.4821 7.29087 17.1011 8.17192 17.1011C8.42167 17.1011 8.65342 17.1369 8.94807 17.2225C8.97207 17.2294 8.99802 17.2185 9.00902 17.1966C9.11892 16.9907 9.25177 16.7391 9.40162 16.4307C9.40862 16.4168 9.40862 16.4009 9.40262 16.3869C9.39662 16.373 9.38462 16.3621 9.36962 16.3571C8.98207 16.2338 8.51957 16.1621 8.10302 16.1621C6.71547 16.1621 6.09717 16.8137 6.09717 18.2759C6.09717 19.7589 6.71547 20.4204 8.10302 20.4204C8.45062 20.4204 9.13587 20.3478 9.46652 20.2165C9.49252 20.2056 9.50647 20.1757 9.49652 20.1499L9.20982 19.3571Z" fill="#EE2F53"/>
<path d="M12.5321 13.4703C12.5271 13.4574 12.5171 13.4465 12.5041 13.4405C12.4911 13.4345 12.4761 13.4345 12.4631 13.4385C12.2314 13.5241 11.7969 13.5937 11.4942 13.5937C10.8319 13.5937 10.5162 13.4156 10.5162 12.404C10.5162 11.5954 10.6131 11.2144 11.4942 11.2144C11.7439 11.2144 11.9757 11.2502 12.2704 11.3357C12.2943 11.3427 12.3203 11.3318 12.3313 11.3099C12.4412 11.104 12.574 10.8523 12.7239 10.544C12.7309 10.53 12.7309 10.5141 12.7249 10.5002C12.7189 10.4863 12.7069 10.4753 12.6919 10.4704C12.3043 10.347 11.8418 10.2754 11.4253 10.2754C10.0378 10.2754 9.41943 10.9269 9.41943 12.3891C9.41943 13.8722 10.0378 14.5337 11.4253 14.5337C11.7729 14.5337 12.4582 14.4611 12.7888 14.3298C12.8148 14.3188 12.8288 14.289 12.8188 14.2631L12.5321 13.4703Z" fill="#0066B3"/>
<path d="M6.80458 10.2754C5.44808 10.2754 4.91992 10.8679 4.91992 12.3889C4.91992 13.9331 5.44808 14.5337 6.80458 14.5337C8.17193 14.5337 8.70503 13.9331 8.70503 12.3889C8.70503 10.8679 8.17193 10.2754 6.80458 10.2754ZM6.80458 13.6474C6.18658 13.6474 5.99403 13.4764 5.99403 12.404C5.99403 11.2623 6.20433 11.1607 6.80458 11.1607C7.41668 11.1607 7.63093 11.2623 7.63093 12.404C7.63093 13.4764 7.43443 13.6474 6.80458 13.6474Z" fill="#0066B3"/>
<path d="M25.9689 16.2734H25.0031C24.9749 16.2734 24.9527 16.2955 24.9527 16.3236V19.3652C24.7435 19.4235 24.5342 19.4516 24.2988 19.4516C23.7132 19.4516 23.5432 19.2869 23.5211 18.5998V16.3236C23.5211 16.2955 23.4989 16.2734 23.4708 16.2734H22.5049C22.4767 16.2734 22.4546 16.2955 22.4546 16.3236V16.3297C22.4546 16.3297 22.4546 18.6189 22.4556 18.6219C22.4787 19.9147 22.9476 20.4209 24.1056 20.4209C24.7817 20.4209 25.5363 20.2492 25.984 20.0784C26.0051 20.0714 26.0182 20.0513 26.0182 20.0292V16.3297V16.3236C26.0192 16.2955 25.9971 16.2734 25.9689 16.2734Z" fill="#EE2F53"/>
</g>
<defs>
<linearGradient id="paint0_linear_1_1328" x1="16.4086" y1="-0.11648" x2="16.4086" y2="31.9565" gradientUnits="userSpaceOnUse">
<stop stop-color="#0F67B1"/>
<stop offset="0.4" stop-color="#0F67B1"/>
<stop offset="0.66" stop-color="#EE2F53"/>
<stop offset="1" stop-color="#EE2F53"/>
</linearGradient>
<clipPath id="clip0_1_1328">
<rect width="32" height="32" fill="white"/>
</clipPath>
</defs>
</svg>
