<svg width="32" height="32" viewBox="0 0 32 32" fill="none" xmlns="http://www.w3.org/2000/svg">
<path fill-rule="evenodd" clip-rule="evenodd" d="M18.0337 2.28799C18.762 2.26262 19.4465 2.63542 19.8203 3.26104C20.0101 3.5788 20.0414 3.91876 20.0402 4.16446C20.0389 4.4227 19.9993 4.70178 19.9456 4.98188C19.8404 5.53132 19.6447 6.26185 19.4035 7.16196L18.2859 11.3327C18.2092 11.6191 18.1679 11.7761 18.147 11.8911C18.1461 11.8957 18.1454 11.9001 18.1447 11.9042C18.1486 11.9056 18.1527 11.9071 18.1571 11.9087C18.2673 11.9481 18.4238 11.9908 18.7102 12.0676L19.2848 12.2215C20.4976 12.5465 21.4749 12.8083 22.2213 13.0835C22.9759 13.3616 23.6423 13.7028 24.1167 14.2712C24.8255 15.1202 25.1511 16.2247 25.0162 17.3224C24.9259 18.0572 24.5512 18.7053 24.0682 19.3483C23.5903 19.9843 22.9113 20.7345 22.0687 21.6654L17.0175 27.2459C16.3921 27.9368 15.8846 28.4976 15.48 28.884C15.2738 29.081 15.0609 29.2656 14.8446 29.4068C14.6389 29.5411 14.3363 29.6993 13.9664 29.7121C13.2381 29.7375 12.5536 29.3647 12.1798 28.7391C11.99 28.4213 11.9587 28.0814 11.9599 27.8357C11.9612 27.5774 12.0008 27.2983 12.0545 27.0183C12.1597 26.4688 12.3554 25.7383 12.5966 24.8382L13.7141 20.6675C13.7909 20.3811 13.8321 20.2242 13.8531 20.1091C13.8539 20.1045 13.8547 20.1002 13.8554 20.0961C13.8515 20.0946 13.8473 20.0931 13.843 20.0915C13.7328 20.0522 13.5763 20.0094 13.2899 19.9327L12.7154 19.7787C11.5025 19.4538 10.5252 19.1919 9.77872 18.9168C9.02416 18.6387 8.35776 18.2974 7.88333 17.7291C7.17459 16.8801 6.84898 15.7755 6.98385 14.6779C7.07414 13.9431 7.44885 13.2949 7.93189 12.6519C8.40972 12.0159 9.0887 11.2658 9.93131 10.3349L14.9826 4.7542C15.608 4.0633 16.1155 3.50257 16.52 3.11614C16.7263 2.91915 16.9392 2.73449 17.1555 2.59331C17.3612 2.45899 17.6638 2.30088 18.0337 2.28799ZM17.9015 4.56234C17.5563 4.89214 17.0978 5.39773 16.4358 6.12906L11.4481 11.6394C10.5635 12.6167 9.94711 13.2992 9.5309 13.8532C9.11347 14.4089 8.9945 14.7136 8.96893 14.9218C8.90149 15.4706 9.0643 16.0229 9.41866 16.4474C9.55308 16.6084 9.81831 16.7998 10.4704 17.0402C11.1206 17.2798 12.0086 17.5188 13.2819 17.86L13.8383 18.0091C14.0821 18.0744 14.3195 18.138 14.5162 18.2083C14.7322 18.2855 14.9813 18.3978 15.2077 18.6017C15.5216 18.8843 15.7379 19.259 15.8257 19.6721C15.8891 19.9701 15.8618 20.2421 15.8207 20.4677C15.7832 20.6732 15.7196 20.9106 15.6542 21.1543L14.5399 25.3132C14.2846 26.266 14.1086 26.9254 14.0188 27.3943C14.0089 27.4459 14.0005 27.4929 13.9935 27.5357C14.0256 27.5066 14.0606 27.4741 14.0986 27.4378C14.4438 27.108 14.9023 26.6024 15.5643 25.8711L20.5519 20.3608C21.4365 19.3835 22.0529 18.701 22.4691 18.147C22.8866 17.5914 23.0055 17.2866 23.0311 17.0785C23.0986 16.5296 22.9358 15.9774 22.5814 15.5529C22.447 15.3918 22.1817 15.2004 21.5297 14.96C20.8795 14.7204 19.9914 14.4814 18.7181 14.1402L18.1617 13.9912C17.918 13.9259 17.6805 13.8623 17.4839 13.792C17.2679 13.7148 17.0188 13.6024 16.7924 13.3986C16.4785 13.1159 16.2622 12.7412 16.1743 12.3281C16.111 12.0301 16.1383 11.7582 16.1794 11.5325C16.2168 11.3271 16.2805 11.0897 16.3458 10.8459C16.3486 10.8356 16.3513 10.8254 16.3541 10.8151L17.4602 6.68699C17.7155 5.73419 17.8915 5.07473 17.9813 4.60579C17.9912 4.55422 17.9995 4.5072 18.0066 4.4644C17.9745 4.49354 17.9395 4.52607 17.9015 4.56234Z" fill="black"/>
</svg>
