<svg width="32" height="32" viewBox="0 0 32 32" fill="none" xmlns="http://www.w3.org/2000/svg">
<path fill-rule="evenodd" clip-rule="evenodd" d="M16 2C16.5523 2 17 2.44772 17 3V6.58579L19.2929 4.29289C19.6834 3.90237 20.3166 3.90237 20.7071 4.29289C21.0976 4.68342 21.0976 5.31658 20.7071 5.70711L17 9.41421V14.2681L21.2037 11.8411L22.5606 6.77709C22.7035 6.24362 23.2519 5.92704 23.7853 6.06998C24.3188 6.21292 24.6354 6.76126 24.4924 7.29472L23.6532 10.4269L26.7586 8.63398C27.2369 8.35784 27.8485 8.52171 28.1246 9.00001C28.4007 9.4783 28.2369 10.0899 27.7586 10.366L24.6532 12.1589L27.7853 12.9982C28.3188 13.1411 28.6354 13.6895 28.4924 14.2229C28.3495 14.7564 27.8012 15.073 27.2677 14.93L22.2037 13.5731L17.9999 16.0002L22.2029 18.4268L27.2669 17.0699C27.8004 16.927 28.3487 17.2436 28.4916 17.777C28.6346 18.3105 28.318 18.8588 27.7845 19.0018L24.6524 19.841L27.7578 21.6339C28.236 21.9101 28.3999 22.5217 28.1238 22.9999C27.8476 23.4782 27.236 23.6421 26.7578 23.366L23.6524 21.5731L24.4916 24.7052C24.6346 25.2387 24.318 25.787 23.7845 25.93C23.2511 26.0729 22.7027 25.7563 22.5598 25.2229L21.2029 20.1589L17 17.7323V22.5858L20.7071 26.2929C21.0976 26.6834 21.0976 27.3166 20.7071 27.7071C20.3166 28.0976 19.6834 28.0976 19.2929 27.7071L17 25.4142V29C17 29.5523 16.5523 30 16 30C15.4477 30 15 29.5523 15 29V25.4142L12.7071 27.7071C12.3166 28.0976 11.6834 28.0976 11.2929 27.7071C10.9023 27.3166 10.9023 26.6834 11.2929 26.2929L15 22.5858V17.7322L10.7968 20.1589L9.43989 25.2229C9.29695 25.7564 8.74861 26.073 8.21514 25.93C7.68168 25.7871 7.36509 25.2388 7.50804 24.7053L8.34729 21.5731L5.24191 23.366C4.76362 23.6422 4.15203 23.4783 3.87589 23C3.59974 22.5217 3.76362 21.9101 4.24191 21.634L7.34729 19.8411L4.21514 19.0018C3.68168 18.8589 3.36509 18.3106 3.50804 17.7771C3.65098 17.2436 4.19931 16.927 4.73278 17.07L9.79678 18.4269L13.9999 16.0002L9.79597 13.5731L4.73197 14.93C4.1985 15.0729 3.65016 14.7563 3.50722 14.2229C3.36428 13.6894 3.68086 13.1411 4.21433 12.9981L7.34648 12.1589L4.2411 10.366C3.76281 10.0898 3.59893 9.47824 3.87507 8.99995C4.15121 8.52165 4.76281 8.35778 5.2411 8.63392L8.34648 10.4268L7.50722 7.29466C7.36428 6.7612 7.68086 6.21286 8.21433 6.06992C8.7478 5.92698 9.29613 6.24356 9.43907 6.77703L10.796 11.841L15 14.2682V9.41421L11.2929 5.70711C10.9023 5.31658 10.9023 4.68342 11.2929 4.29289C11.6834 3.90237 12.3166 3.90237 12.7071 4.29289L15 6.58579V3C15 2.44772 15.4477 2 16 2Z" fill="#121212"/>
</svg>
