<svg width="32" height="32" viewBox="0 0 32 32" fill="none" xmlns="http://www.w3.org/2000/svg">
<path fill-rule="evenodd" clip-rule="evenodd" d="M17 4C17 3.44772 16.5523 3 16 3C15.4477 3 15 3.44772 15 4V9.07089C13.8141 9.24052 12.7241 9.70739 11.8078 10.3936L8.22186 6.80763C7.83134 6.41711 7.19817 6.41711 6.80765 6.80763C6.41712 7.19816 6.41712 7.83132 6.80765 8.22185L10.3936 11.8078C9.70739 12.7241 9.24052 13.8141 9.07089 15H4C3.44772 15 3 15.4477 3 16C3 16.5523 3.44772 17 4 17H9.07089C9.24052 18.1859 9.7074 19.276 10.3936 20.1922L6.80765 23.7782C6.41712 24.1687 6.41712 24.8019 6.80765 25.1924C7.19817 25.5829 7.83134 25.5829 8.22186 25.1924L11.8079 21.6064C12.7241 22.2926 13.8141 22.7595 15 22.9291V28C15 28.5523 15.4477 29 16 29C16.5523 29 17 28.5523 17 28V22.9291C18.1859 22.7595 19.2759 22.2926 20.1922 21.6064L23.7782 25.1924C24.1687 25.5829 24.8019 25.5829 25.1924 25.1924C25.5829 24.8019 25.5829 24.1687 25.1924 23.7782L21.6064 20.1922C22.2926 19.2759 22.7595 18.1859 22.9291 17H28C28.5523 17 29 16.5523 29 16C29 15.4477 28.5523 15 28 15H22.9291C22.7595 13.8141 22.2926 12.7241 21.6064 11.8079L25.1924 8.22185C25.5829 7.83132 25.5829 7.19816 25.1924 6.80763C24.8019 6.41711 24.1687 6.41711 23.7782 6.80763L20.1922 10.3936C19.276 9.7074 18.1859 9.24052 17 9.07089V4ZM13.2385 11.8311C13.7656 11.4813 14.363 11.2287 15.0048 11.099C15.3265 11.0341 15.6592 11 16 11C16.3408 11 16.6735 11.0341 16.9952 11.099C17.6371 11.2287 18.2344 11.4813 18.7616 11.8312C19.3194 12.2014 19.7986 12.6807 20.1689 13.2385C20.5188 13.7656 20.7713 14.363 20.901 15.0048C20.9659 15.3265 21 15.6592 21 16C21 16.3408 20.9659 16.6735 20.901 16.9952C20.7713 17.6371 20.5187 18.2344 20.1688 18.7615C19.7986 19.3194 19.3194 19.7986 18.7616 20.1688C18.2344 20.5187 17.6371 20.7713 16.9952 20.901C16.6735 20.9659 16.3408 21 16 21C15.6592 21 15.3265 20.9659 15.0048 20.901C14.363 20.7713 13.7656 20.5188 13.2385 20.1689C12.6807 19.7986 12.2014 19.3194 11.8312 18.7616C11.4813 18.2344 11.2287 17.6371 11.099 16.9952C11.0341 16.6735 11 16.3408 11 16C11 15.6592 11.0341 15.3265 11.099 15.0048C11.2287 14.3629 11.4813 13.7656 11.8312 13.2384C12.2014 12.6806 12.6806 12.2014 13.2385 11.8311ZM21.5162 5.29614C21.7276 4.7859 21.4853 4.20093 20.975 3.98958C20.4648 3.77823 19.8798 4.02053 19.6685 4.53078L18.9031 6.37854C18.6918 6.88878 18.9341 7.47375 19.4443 7.6851C19.9546 7.89645 20.5395 7.65415 20.7509 7.1439L21.5162 5.29614ZM12.3315 4.53094C12.1202 4.02069 11.5352 3.77839 11.025 3.98974C10.5147 4.20109 10.2724 4.78606 10.4838 5.29631L11.2491 7.14406C11.4605 7.65431 12.0455 7.89661 12.5557 7.68526C13.0659 7.47391 13.3083 6.88894 13.0969 6.3787L12.3315 4.53094ZM27.4693 12.3318C27.9796 12.1204 28.2219 11.5354 28.0105 11.0252C27.7992 10.515 27.2142 10.2727 26.704 10.484L24.8562 11.2494C24.3459 11.4607 24.1036 12.0457 24.315 12.5559C24.5263 13.0662 25.1113 13.3085 25.6216 13.0971L27.4693 12.3318ZM5.2962 10.4842C4.78596 10.2728 4.20099 10.5151 3.98964 11.0254C3.77829 11.5356 4.02059 12.1206 4.53083 12.3319L6.37859 13.0973C6.88884 13.3086 7.47381 13.0663 7.68516 12.5561C7.89651 12.0458 7.6542 11.4609 7.14396 11.2495L5.2962 10.4842ZM7.14397 20.7508C7.65421 20.5394 7.89651 19.9545 7.68516 19.4442C7.47381 18.934 6.88885 18.6917 6.3786 18.903L4.53084 19.6684C4.0206 19.8798 3.7783 20.4647 3.98965 20.975C4.201 21.4852 4.78597 21.7275 5.29621 21.5162L7.14397 20.7508ZM25.6215 18.9032C25.1113 18.6918 24.5263 18.9341 24.315 19.4444C24.1036 19.9546 24.3459 20.5396 24.8562 20.751L26.7039 21.5163C27.2142 21.7277 27.7992 21.4854 28.0105 20.9751C28.2219 20.4649 27.9796 19.8799 27.4693 19.6686L25.6215 18.9032ZM13.0972 25.6215C13.3086 25.1112 13.0663 24.5263 12.556 24.3149C12.0458 24.1036 11.4608 24.3459 11.2494 24.8561L10.4841 26.7039C10.2727 27.2141 10.515 27.7991 11.0253 28.0104C11.5355 28.2218 12.1205 27.9795 12.3318 27.4692L13.0972 25.6215ZM20.7506 24.8563C20.5392 24.346 19.9543 24.1037 19.444 24.3151C18.9338 24.5264 18.6915 25.1114 18.9028 25.6217L19.6682 27.4694C19.8795 27.9797 20.4645 28.222 20.9747 28.0106C21.485 27.7993 21.7273 27.2143 21.5159 26.704L20.7506 24.8563Z" fill="#121212"/>
</svg>
