<svg width="30" height="19" viewBox="0 0 30 19" fill="none" xmlns="http://www.w3.org/2000/svg">
<path d="M12.0353 9.64168C12.0353 6.77691 13.3771 4.23851 15.4622 2.58855C13.9391 1.39188 12.0172 0.666613 9.91395 0.666613C4.96407 0.666613 0.957031 4.67366 0.957031 9.62355C0.957031 14.5734 4.96407 18.5805 9.91395 18.5805C11.9991 18.5805 13.921 17.8552 15.4622 16.6585C13.3771 15.0448 12.0353 12.4883 12.0353 9.64168Z" fill="#C9CBD1"/>
<path d="M29.9676 9.65983C29.9676 14.6097 25.9605 18.6168 21.0106 18.6168C18.9255 18.6168 17.0036 17.8915 15.4624 16.6948C17.5475 15.0449 18.8892 12.5065 18.8892 9.6417C18.8892 6.77693 17.5475 4.23853 15.4624 2.58857C16.9854 1.39189 18.9074 0.666641 21.0106 0.666641C25.9605 0.684772 29.9676 4.70995 29.9676 9.65983Z" fill="#C9CBD1"/>
</svg>
