<svg width="51" height="15" viewBox="0 0 51 15" fill="none" xmlns="http://www.w3.org/2000/svg">
<path d="M18.524 14.5163H14.2935V6.47829C14.2935 6.32317 14.1665 6.19626 14.0114 6.19626C13.8704 6.19626 13.7576 6.29497 13.7364 6.42894L11.2616 14.5163H8.22265L5.75484 6.42188C5.73368 6.29497 5.62087 6.19626 5.47985 6.19626C5.32473 6.19626 5.19782 6.32317 5.19782 6.47829V14.5163H0.967285V0.696564H4.59849H5.68433C6.45992 0.696564 7.27783 1.30294 7.50346 2.04328L9.56231 8.77688C9.66808 9.11532 9.83025 9.10827 9.93601 8.77688L11.9949 2.04328C12.2205 1.29589 13.0384 0.696564 13.814 0.696564H14.8928H18.524V14.5163ZM34.2475 14.5163H30.0169V6.30202C30.0099 6.16805 29.9041 6.05524 29.7631 6.05524C29.6644 6.05524 29.5868 6.10459 29.5445 6.1892V6.19626C29.5445 6.20331 29.5375 6.21036 29.5375 6.21741L26.0825 13.6279C25.864 14.1073 25.2717 14.4951 24.7358 14.5234H20.5053V0.703616H24.7358V8.74162C24.7358 8.89674 24.8627 9.02366 25.0179 9.02366C25.1166 9.02366 25.2012 8.9743 25.2505 8.90379C25.2646 8.87559 25.2787 8.85444 25.2858 8.81919L28.6491 1.59908C28.8747 1.11257 29.4811 0.724768 30.0169 0.703616H34.2475V14.5163ZM45.3879 10.0742H40.5933V14.5868H36.3627V6.97185H49.7665C49.1178 8.76983 47.4044 10.0601 45.3879 10.0742ZM49.9427 6.26676C49.9427 6.26676 42.5957 6.26676 42.5887 6.26676C38.9927 6.26676 36.0454 3.806 35.7987 0.696564H45.3738C47.9473 0.717716 50.0273 2.80478 50.0273 5.3854C50.0273 5.68859 49.9991 5.98473 49.9427 6.26676Z" fill="#C9CBD1"/>
</svg>
