<svg width="46" height="15" viewBox="0 0 46 15" fill="none" xmlns="http://www.w3.org/2000/svg">
<path d="M30.2726 0.354034C27.0786 0.354034 24.2242 2.00958 24.2242 5.06833C24.2242 8.57613 29.2865 8.81841 29.2865 10.5806C29.2865 11.3226 28.4362 11.9868 26.9839 11.9868C24.9227 11.9868 23.3822 11.0587 23.3822 11.0587L22.7231 14.1454C22.7231 14.1454 24.4977 14.9293 26.8538 14.9293C30.3459 14.9293 33.0938 13.1925 33.0938 10.0814C33.0938 6.37481 28.0104 6.13972 28.0104 4.50409C28.0104 3.92284 28.7084 3.28596 30.1566 3.28596C31.7906 3.28596 33.1237 3.96094 33.1237 3.96094L33.7688 0.979794C33.7688 0.979794 32.3182 0.354034 30.2726 0.354034ZM1.05 0.579027L0.972656 1.02901C0.972656 1.02901 2.31641 1.27494 3.52667 1.76551C5.08498 2.32805 5.19599 2.65553 5.45844 3.67267L8.3183 14.6973H12.152L18.058 0.579027H14.2331L10.4381 10.1781L8.88957 2.04148C8.74755 1.11025 8.02818 0.579027 7.14764 0.579027H1.05ZM19.596 0.579027L16.5956 14.6973H20.2429L23.2328 0.579027H19.596ZM39.9385 0.579027C39.059 0.579027 38.593 1.0499 38.2511 1.87273L32.9075 14.6973H36.7324L37.4724 12.5599H42.1322L42.5821 14.6973H45.957L43.0128 0.579027H39.9385ZM40.4359 4.39335L41.5697 9.69121H38.5323L40.4359 4.39335Z" fill="#C9CBD1"/>
</svg>
